. 
 
 
http://www.torrentday.com :  Your Key To The Scene.


Now TvTeam with [No-RAR] Releases.



(((((((((((((= Enjoy No RAR releases =))))))))))))))))))))



...................................NFO:....................................

.*******************************************************************************
                   The.Truth.2010.DVDRip.AC3.X264-BARC0DE
*******************************************************************************

-------------------------------------------------------------------------------
                              General Information
-------------------------------------------------------------------------------
Type.................: Movie
Name.................: The Truth
Movie Information....: http://www.imdb.com/title/tt1315419/
Genre................: Thriller

-------------------------------------------------------------------------------
                                    PLOT
-------------------------------------------------------------------------------
When a couple is taken hostage in their home by an intruder, a simple home invasion 
robbery turns into something much more complicated. The wife may, or may not, know the 
intruder; and the intruder may, or may not, have previously crossed paths with the husband.
Can a couple survive once they have been exposed to each other for who (and for what) 
they really are? Is the intruder actually there just to rob them? What are they each 
trying to hide from him and from each other? 

-------------------------------------------------------------------------------
                                    CAST
-------------------------------------------------------------------------------
John Heard	... 	Jonathan Davenport
Brendan Sexton III	... 	Gabriel Doyle
Erin Cardillo	... 	Dana Davenport
Daniel Baldwin	... 	Gabriel's Father
Erica Shaffer	... 	Gabriel's Mother
Carter MacIntyre	... 	Young Jonathan
Jacob Ochsner	... 	Young Gabriel
Chic Daniel	... 	Veteran Cop
Ari Schneider	... 	Rookie Cop
Jenna Brighton	... 	Secretary
Zoe Taylor	... 	Jogger
Joel M. Schneider	... 	Jogger #2
A.J. Gordon	... 	Valet Driver

-------------------------------------------------------------------------------
                                    MEDiA iNFO
-------------------------------------------------------------------------------

General
Complete name                    : The.Truth.2010.DVDRip.AC3.X264-BARC0DE.mkv
Format                           : Matroska
File size                        : 1.06 GiB
Duration                         : 1h 32mn
Overall bit rate                 : 1 650 Kbps


Video
ID                               : 1
Format                           : AVC
Format/Info                      : Advanced Video Codec
Format profile                   : High@L3.0
Format settings, CABAC           : Yes
Format settings, ReFrames        : 3 frames
Muxing mode                      : Container profile=Unknown@3.0
Codec ID                         : V_MPEG4/ISO/AVC
Duration                         : 1h 32mn
Bit rate                         : 1 169 Kbps
Nominal bit rate                 : 1 814 Kbps
Width                            : 720 pixels
Height                           : 304 pixels
Display aspect ratio             : 2.35:1
Frame rate                       : 25.000 fps
Resolution                       : 8 bits
Colorimetry                      : 4:2:0
Scan type                        : Progressive
Bits/(Pixel*Frame)               : 0.214
Stream size                      : 772 MiB (71%)
Writing library                  : x264 core 79


Audio
ID                               : 2
Format                           : AC-3
Format/Info                      : Audio Coding 3
Format_Settings_ModeExtension    : CM (complete main)
Codec ID                         : A_AC3
Duration                         : 1h 32mn
Bit rate mode                    : Constant
Bit rate                         : 448 Kbps
Channel(s)                       : 6 channels
Channel positions                : Front: L C R, Side: L R, LFE
Sampling rate                    : 48.0 KHz
Stream size                      : 296 MiB (27%)
Language                         : English

Menu
00:00:00.000                     : Chapter 1
00:07:42.400                     : Chapter 2
00:11:40.800                     : Chapter 3
00:23:41.080                     : Chapter 4
00:31:20.040                     : Chapter 5
00:38:21.800                     : Chapter 6
00:48:05.640                     : Chapter 7
00:53:54.320                     : Chapter 8
01:03:28.920                     : Chapter 9
01:11:53.920                     : Chapter 10
01:24:56.440                     : Chapter 11
01:28:56.200                     : Chapter 12
01:32:19.880                     : Chapter 13